<?xml version="1.0" encoding="UTF-8" standalone="no"?>
<svg
   xmlns:dc="http://purl.org/dc/elements/1.1/"
   xmlns:cc="http://creativecommons.org/ns#"
   xmlns:rdf="http://www.w3.org/1999/02/22-rdf-syntax-ns#"
   xmlns:svg="http://www.w3.org/2000/svg"
   xmlns="http://www.w3.org/2000/svg"
   xmlns:sodipodi="http://sodipodi.sourceforge.net/DTD/sodipodi-0.dtd"
   xmlns:inkscape="http://www.inkscape.org/namespaces/inkscape"
   inkscape:version="1.0 (4035a4fb49, 2020-05-01)"
   sodipodi:docname="doc_icon_disable.svg"
   id="svg16"
   version="1.1"
   height="24"
   width="24">
  <metadata
     id="metadata22">
    <rdf:RDF>
      <cc:Work
         rdf:about="">
        <dc:format>image/svg+xml</dc:format>
        <dc:type
           rdf:resource="http://purl.org/dc/dcmitype/StillImage" />
        <dc:title></dc:title>
      </cc:Work>
    </rdf:RDF>
  </metadata>
  <defs
     id="defs20" />
  <sodipodi:namedview
     inkscape:current-layer="svg16"
     inkscape:window-maximized="1"
     inkscape:window-y="532"
     inkscape:window-x="1440"
     inkscape:cy="13.874147"
     inkscape:cx="7.0146219"
     inkscape:zoom="19.769527"
     showgrid="false"
     id="namedview18"
     inkscape:window-height="837"
     inkscape:window-width="1600"
     inkscape:pageshadow="2"
     inkscape:pageopacity="0"
     guidetolerance="10"
     gridtolerance="10"
     objecttolerance="10"
     borderopacity="1"
     bordercolor="#666666"
     pagecolor="#ffffff" />
  <g
     id="g5">
    <title
       id="title2">background</title>
    <rect
       x="-1"
       y="-1"
       width="582"
       height="402"
       id="canvas_background"
       fill="none" />
  </g>
  <g
     style="fill:#999999"
     id="g14">
    <title
       id="title7">Layer 1</title>
    <path
       style="fill:#999999"
       d="m17,21l-10,0c-1.654,0 -3,-1.346001 -3,-3l0,-12c0,-1.654 1.346,-3 3,-3l10,0c1.653999,0 3,1.346 3,3l0,12c0,1.653999 -1.346001,3 -3,3zm-10,-16c-0.551,0 -1,0.449 -1,1l0,12c0,0.551001 0.449,1 1,1l10,0c0.551001,0 1,-0.448999 1,-1l0,-12c0,-0.551 -0.448999,-1 -1,-1l-10,0z"
       id="svg_2"
       fill="#d4213d" />
    <path
       style="fill:#999999"
       d="m16,11l-8,0c-0.276,0 -0.5,-0.224 -0.5,-0.5s0.224,-0.5 0.5,-0.5l8,0c0.275999,0 0.5,0.224 0.5,0.5s-0.224001,0.5 -0.5,0.5z"
       id="svg_4"
       fill="#d4213d" />
    <path
       style="fill:#999999"
       d="m16,8l-8,0c-0.276,0 -0.5,-0.224 -0.5,-0.5s0.224,-0.5 0.5,-0.5l8,0c0.275999,0 0.5,0.224 0.5,0.5s-0.224001,0.5 -0.5,0.5z"
       id="svg_6"
       fill="#d4213d" />
    <path
       style="fill:#999999"
       d="m16,14l-8,0c-0.276,0 -0.5,-0.224 -0.5,-0.5s0.224,-0.5 0.5,-0.5l8,0c0.275999,0 0.5,0.224 0.5,0.5s-0.224001,0.5 -0.5,0.5z"
       id="svg_8"
       fill="#d4213d" />
    <path
       style="fill:#999999"
       d="m16,17l-8,0c-0.276,0 -0.5,-0.224001 -0.5,-0.5s0.224,-0.5 0.5,-0.5l8,0c0.275999,0 0.5,0.224001 0.5,0.5s-0.224001,0.5 -0.5,0.5z"
       id="svg_10"
       fill="#d4213d" />
  </g>
</svg>
