<svg width="24" height="24" xmlns="http://www.w3.org/2000/svg">

 <g>
  <title>background</title>
  <rect fill="none" id="canvas_background" height="402" width="582" y="-1" x="-1"/>
 </g>
 <g>
  <title>Layer 1</title>
  <path fill="#d4213d" id="svg_2" d="m17,21l-10,0c-1.654,0 -3,-1.346001 -3,-3l0,-12c0,-1.654 1.346,-3 3,-3l10,0c1.653999,0 3,1.346 3,3l0,12c0,1.653999 -1.346001,3 -3,3zm-10,-16c-0.551,0 -1,0.449 -1,1l0,12c0,0.551001 0.449,1 1,1l10,0c0.551001,0 1,-0.448999 1,-1l0,-12c0,-0.551 -0.448999,-1 -1,-1l-10,0z"/>
  <path fill="#d4213d" id="svg_4" d="m16,11l-8,0c-0.276,0 -0.5,-0.224 -0.5,-0.5s0.224,-0.5 0.5,-0.5l8,0c0.275999,0 0.5,0.224 0.5,0.5s-0.224001,0.5 -0.5,0.5z"/>
  <path fill="#d4213d" id="svg_6" d="m16,8l-8,0c-0.276,0 -0.5,-0.224 -0.5,-0.5s0.224,-0.5 0.5,-0.5l8,0c0.275999,0 0.5,0.224 0.5,0.5s-0.224001,0.5 -0.5,0.5z"/>
  <path fill="#d4213d" id="svg_8" d="m16,14l-8,0c-0.276,0 -0.5,-0.224 -0.5,-0.5s0.224,-0.5 0.5,-0.5l8,0c0.275999,0 0.5,0.224 0.5,0.5s-0.224001,0.5 -0.5,0.5z"/>
  <path fill="#d4213d" id="svg_10" d="m16,17l-8,0c-0.276,0 -0.5,-0.224001 -0.5,-0.5s0.224,-0.5 0.5,-0.5l8,0c0.275999,0 0.5,0.224001 0.5,0.5s-0.224001,0.5 -0.5,0.5z"/>
 </g>
</svg>